<?xml version="1.0" standalone="no"?>
<!DOCTYPE svg PUBLIC "-//W3C//DTD SVG 20010904//EN"
 "http://www.w3.org/TR/2001/REC-SVG-20010904/DTD/svg10.dtd">
<svg version="1.0" xmlns="http://www.w3.org/2000/svg"
 width="210.000000pt" height="210.000000pt" viewBox="0 0 210.000000 210.000000"
 preserveAspectRatio="xMidYMid meet">
<metadata>
Created by potrace 1.14, written by Peter Selinger 2001-2017
</metadata>
<g transform="translate(0.000000,210.000000) scale(0.100000,-0.100000)"
fill="#000000" stroke="none">
<path d="M637 1907 c-38 -40 -67 -81 -67 -95 0 -8 -9 -25 -20 -39 -27 -35 -12
-63 34 -63 43 0 65 -39 41 -73 -19 -27 -19 -42 1 -61 20 -20 29 -20 49 0 13
13 21 14 39 6 47 -21 80 38 36 66 -23 14 -26 32 -6 32 21 0 28 30 24 115 -2
76 -11 94 -43 99 -9 1 -20 7 -23 12 -16 23 -43 24 -65 1z m23 -117 c0 -5 -4
-10 -10 -10 -5 0 -10 5 -10 10 0 6 5 10 10 10 6 0 10 -4 10 -10z"/>
<path d="M1024 1893 c-21 -21 -17 -54 7 -60 15 -4 19 -12 17 -32 -2 -14 -7
-25 -13 -24 -43 6 -59 -52 -19 -72 17 -8 19 -15 12 -40 -10 -37 10 -69 52 -84
29 -10 35 -8 62 20 29 29 31 37 13 84 -7 16 -6 18 6 8 7 -7 23 -13 36 -13 13
0 23 -3 24 -7 0 -5 2 -22 2 -39 2 -36 21 -63 43 -60 22 3 34 26 34 66 0 23 7
42 20 53 22 19 25 33 10 42 -7 4 -7 12 0 25 14 26 3 112 -17 127 -17 13 -53 1
-53 -18 0 -6 -7 -4 -15 5 -24 23 -68 1 -62 -31 2 -13 -1 -26 -7 -30 -6 -3 -8
-3 -4 2 8 9 -14 56 -34 72 -22 19 -97 22 -114 6z m160 -128 c3 -8 1 -15 -4
-15 -6 0 -10 7 -10 15 0 8 2 15 4 15 2 0 6 -7 10 -15z"/>
<path d="M1422 1888 c-17 -17 -15 -49 6 -64 16 -12 16 -13 0 -19 -10 -4 -18
-12 -18 -19 0 -6 -9 -17 -20 -24 -11 -7 -20 -21 -20 -32 0 -22 34 -45 52 -34
8 5 9 0 4 -17 -19 -59 -18 -74 6 -96 37 -35 78 -34 113 2 29 28 32 61 8 87
-16 17 -15 19 4 33 17 12 21 24 18 54 -1 21 -6 44 -9 50 -4 6 -6 22 -4 35 5
39 -18 56 -76 56 -29 0 -57 -5 -64 -12z"/>
<path d="M818 1873 c-9 -2 -19 -12 -22 -21 -4 -14 0 -138 6 -192 1 -8 -2 -25
-6 -37 -9 -29 24 -49 54 -33 21 11 27 45 10 55 -8 5 -7 11 0 20 7 8 10 46 9
96 -3 87 -18 120 -51 112z"/>
<path d="M967 1384 c-1 -1 -14 -5 -28 -7 -79 -15 -188 -96 -224 -168 -10 -19
-26 -43 -36 -54 -29 -32 -57 -107 -54 -146 4 -48 28 -93 69 -124 20 -15 33
-33 32 -43 -2 -9 0 -41 3 -69 5 -35 4 -53 -3 -53 -6 0 -47 9 -91 20 -95 24
-95 24 -95 7 0 -9 49 -25 143 -47 78 -19 144 -35 147 -35 56 -8 160 -42 160
-52 0 -23 -32 -27 -79 -9 -65 24 -68 25 -153 43 -42 8 -88 13 -102 9 -49 -12
-276 -196 -276 -223 0 -14 32 -30 82 -38 16 -3 80 -19 142 -35 61 -17 129 -34
151 -39 22 -6 54 -13 70 -17 17 -4 38 -9 47 -10 9 -2 56 -15 105 -29 102 -30
139 -34 158 -14 37 39 163 233 158 245 -5 14 -64 38 -168 70 -71 21 -69 20
-61 32 3 5 27 3 58 -5 29 -8 63 -16 75 -19 13 -2 69 -16 125 -30 57 -13 131
-31 165 -39 34 -7 79 -18 99 -24 42 -12 69 1 38 17 -11 5 -56 17 -101 27 -46
11 -83 21 -84 24 0 3 -2 17 -5 30 -3 16 2 28 15 37 69 49 91 212 36 267 -12
13 -10 16 16 27 33 14 59 55 59 93 0 39 -48 123 -94 164 -183 163 -204 178
-291 205 -51 16 -195 25 -208 12z"/>
</g>
</svg>
